<?xml version="1.0" encoding="UTF-8"?>
<svg version="1.1" xmlns="http://www.w3.org/2000/svg" viewBox="0 0 30.249 29.8975">
    <g>
        <rect height="29.8975" opacity="0" width="30.249" x="0" y="0"/>
        <path d="M14.9414 29.8828C23.1885 29.8828 29.8828 23.1885 29.8828 14.9414C29.8828 6.69434 23.1885 0 14.9414 0C6.69434 0 0 6.69434 0 14.9414C0 23.1885 6.69434 29.8828 14.9414 29.8828ZM14.9414 27.3926C8.05664 27.3926 2.49023 21.8262 2.49023 14.9414C2.49023 8.05664 8.05664 2.49023 14.9414 2.49023C21.8262 2.49023 27.3926 8.05664 27.3926 14.9414C27.3926 21.8262 21.8262 27.3926 14.9414 27.3926Z" fill="currentColor" fill-opacity="0.85"/>
        <path d="M8.05664 20.8594L13.1396 20.8594C13.667 20.8594 13.9746 20.5225 13.9746 20.0098C13.9746 19.4531 13.6523 19.1455 13.1396 19.1455L9.66797 19.1455L9.66797 19.0283L11.8066 16.3184C13.2715 14.502 13.7549 13.418 13.7549 12.1289C13.7549 10.1514 12.4072 8.71582 10.3857 8.71582C8.51074 8.71582 7.08984 10.2686 7.08984 11.792C7.08984 12.334 7.41211 12.7148 7.96875 12.7148C8.45215 12.7148 8.74512 12.4951 8.90625 12.0117C9.16992 11.0303 9.53613 10.415 10.3857 10.415C11.2646 10.415 11.7627 11.1914 11.7627 12.2314C11.7627 13.4033 10.9424 14.5898 10.166 15.5859L7.61719 18.8379C7.35352 19.1895 7.0752 19.5557 7.0752 20.0098C7.0752 20.5078 7.39746 20.8594 8.05664 20.8594ZM20.7422 21.0498C21.2842 21.0498 21.7383 20.7129 21.7383 20.0098L21.7383 18.5449L22.251 18.5449C22.8223 18.5449 23.0859 18.1787 23.0859 17.6807C23.0859 17.2119 22.8369 16.8457 22.251 16.8457L21.7383 16.8457L21.7383 10.415C21.7383 9.4043 21.0645 8.83301 20.1123 8.83301C19.0869 8.83301 18.6035 9.36035 18.1934 10.2686L15.5713 15.9521C15.3223 16.5234 15.2344 16.9043 15.2344 17.3584C15.2344 18.0615 15.7324 18.5449 16.4355 18.5449L19.7168 18.5449L19.7168 20.0098C19.7168 20.7861 20.2734 21.0498 20.7422 21.0498ZM19.7607 16.8896L17.0361 16.8896L17.0361 16.7871L19.7021 10.6787L19.7607 10.6787Z" fill="currentColor" fill-opacity="0.85"/>
    </g>
</svg>
