<?xml version="1.0" encoding="UTF-8"?>
<svg version="1.1" xmlns="http://www.w3.org/2000/svg" viewBox="0 0 22.5732 27.6709">
    <g>
        <rect height="27.6709" opacity="0" width="22.5732" x="0" y="0"/>
        <path d="M11.1035 0C10.3418 0 9.7998 0.527344 9.7998 1.28906L9.7998 20.5811L9.94629 24.9463L10.7666 24.6533L5.52246 18.8965L2.18262 15.6152C1.96289 15.3809 1.61133 15.2637 1.25977 15.2637C0.527344 15.2637 0 15.8203 0 16.5381C0 16.8896 0.131836 17.1973 0.410156 17.4902L10.1221 27.2314C10.4004 27.5244 10.7373 27.6709 11.1035 27.6709C11.4697 27.6709 11.8066 27.5244 12.085 27.2314L21.8115 17.4902C22.0898 17.1973 22.207 16.8896 22.207 16.5381C22.207 15.8203 21.6797 15.2637 20.9473 15.2637C20.5957 15.2637 20.2588 15.3809 20.0244 15.6152L16.6846 18.8965L11.4258 24.6533L12.2607 24.9463L12.4072 20.5811L12.4072 1.28906C12.4072 0.527344 11.8652 0 11.1035 0Z" fill="currentColor" fill-opacity="0.85"/>
    </g>
</svg>
