<?xml version="1.0" encoding="UTF-8"?>
<svg version="1.1" xmlns="http://www.w3.org/2000/svg" viewBox="0 0 34.6436 27.5428">
    <g>
        <rect height="27.5428" opacity="0" width="34.6436" x="0" y="0"/>
        <path d="M26.4844 27.1088L33.8672 19.5355C34.1309 19.2865 34.2773 18.9057 34.2773 18.5687C34.2773 17.7924 33.75 17.2797 32.9883 17.2797C32.6074 17.2797 32.3291 17.3969 32.0801 17.6459L29.0332 20.7953L26.6748 23.5346L26.8066 20.1508L26.8066 1.32753C26.8066 0.565813 26.2646 0.00917266 25.5029 0.00917266C24.7266 0.00917266 24.1846 0.565813 24.1846 1.32753L24.1846 20.1508L24.3311 23.5346L21.9727 20.7953L18.9258 17.6459C18.6768 17.3969 18.3838 17.2797 18.0176 17.2797C17.2559 17.2797 16.7139 17.7924 16.7139 18.5687C16.7139 18.9057 16.875 19.2865 17.1387 19.5355L24.5215 27.1088C25.0635 27.6801 25.9131 27.6947 26.4844 27.1088Z" fill="currentColor" fill-opacity="0.85"/>
        <path d="M7.80762 0.448626L0.410156 7.99257C0.161133 8.25624 0 8.6371 0 8.95937C0 9.73574 0.527344 10.2631 1.28906 10.2631C1.66992 10.2631 1.96289 10.1312 2.21191 9.88222L5.25879 6.73281L7.61719 4.0082L7.4707 7.39199L7.4707 26.2152C7.4707 26.9916 8.0127 27.5336 8.78906 27.5336C9.55078 27.5336 10.0928 26.9916 10.0928 26.2152L10.0928 7.39199L9.96094 4.0082L12.3047 6.73281L15.3662 9.88222C15.6152 10.1312 15.8936 10.2631 16.2744 10.2631C17.0361 10.2631 17.5635 9.73574 17.5635 8.95937C17.5635 8.6371 17.417 8.25624 17.1533 7.99257L9.77051 0.448626C9.22852-0.122663 8.36426-0.15196 7.80762 0.448626Z" fill="currentColor" fill-opacity="0.85"/>
    </g>
</svg>
