<?xml version="1.0" encoding="UTF-8"?>
<svg version="1.1" xmlns="http://www.w3.org/2000/svg" viewBox="0 0 28.0078 30.835">
    <g>
        <rect height="30.835" opacity="0" width="28.0078" x="0" y="0"/>
        <path d="M2.21191 24.9609L25.4297 24.9609C26.8066 24.9609 27.6416 24.2578 27.6416 23.1885C27.6416 21.7236 26.1475 20.4053 24.8877 19.1016C23.9209 18.0908 23.6572 16.0107 23.54 14.3262C23.4375 8.70117 21.9434 4.83398 18.0469 3.42773C17.4902 1.50879 15.9814 0 13.8135 0C11.6602 0 10.1367 1.50879 9.59473 3.42773C5.69824 4.83398 4.2041 8.70117 4.10156 14.3262C3.98438 16.0107 3.7207 18.0908 2.75391 19.1016C1.47949 20.4053 0 21.7236 0 23.1885C0 24.2578 0.820312 24.9609 2.21191 24.9609ZM13.8135 30.835C16.3037 30.835 18.1201 29.0186 18.3105 26.9678L9.33105 26.9678C9.52148 29.0186 11.3379 30.835 13.8135 30.835Z" fill="currentColor" fill-opacity="0.85"/>
    </g>
</svg>
