<?xml version="1.0" encoding="UTF-8"?>
<svg version="1.1" xmlns="http://www.w3.org/2000/svg" viewBox="0 0 31.0107 31.4861">
    <g>
        <rect height="31.4861" opacity="0" width="31.0107" x="0" y="0"/>
        <path d="M7.0459 11.8392C7.0459 12.0881 7.06366 12.3245 7.10115 12.5523C4.1408 13.1758 2.28516 14.2802 2.28516 15.5599C2.28516 17.5814 6.78223 19.1488 12.9199 19.1488C19.0576 19.1488 23.5547 17.5814 23.5547 15.5599C23.5547 14.1721 21.3722 12.9904 17.9693 12.403C17.9219 12.2069 17.9004 11.9925 17.9004 11.7367C17.9004 11.2153 18.1832 10.7299 18.5209 10.208C23.0411 11.0677 25.8252 13.0197 25.8252 15.5599L25.8252 15.5742C28.8262 15.7152 30.6445 17.4007 30.6445 20.1156C30.6445 22.9574 28.667 24.6713 25.4004 24.6713L24.5436 24.6713C22.6371 28.7385 18.6939 31.1459 13.5791 31.1459L12.2607 31.1459C4.92188 31.1459 0 25.9457 0 18.5482L0 15.5599C0 12.991 2.8554 11.0236 7.46737 10.1774C7.22474 10.6594 7.0459 11.1977 7.0459 11.8392ZM25.8252 18.5482C25.8252 19.9261 25.666 21.2159 25.3565 22.4008L25.4004 22.4008C27.2754 22.4008 28.3594 21.5365 28.3594 20.1156C28.3594 18.7927 27.4388 17.9674 25.8252 17.8479ZM11.6602 11.8392L11.6671 12.0244C10.6173 12.0604 9.62773 12.1451 8.71341 12.2711C8.68497 12.111 8.67188 11.9364 8.67188 11.7367C8.67188 11.1115 9.07851 10.5379 9.49751 9.89177C10.3856 9.79217 11.3321 9.73609 12.3298 9.72668C11.9725 10.324 11.6602 10.9914 11.6602 11.8392ZM16.8196 9.94131C16.5173 10.4842 16.2744 11.0916 16.2744 11.8392C16.2744 11.9525 16.2781 12.0632 16.2869 12.1708C15.354 12.0712 14.3524 12.0136 13.2953 12.0064C13.2891 11.9214 13.2861 11.8319 13.2861 11.7367C13.2861 11.0631 13.7581 10.4495 14.2086 9.74026C15.1238 9.77082 15.9962 9.83848 16.8196 9.94131Z" fill="currentColor" fill-opacity="0.85"/>
        <path d="M10.4004 7.4447C10.4004 5.52576 8.67188 4.45642 8.67188 3.13806C8.67188 2.40564 8.8623 2.01013 9.36035 1.33631C10.0488 0.398806 8.74512-0.538694 8.04199 0.369509C7.33887 1.24842 7.0459 2.05408 7.0459 3.03552C7.0459 5.02771 8.74512 6.00916 8.74512 7.4447C8.74512 8.8656 7.0459 9.8617 7.0459 11.8392C7.0459 12.85 7.33887 13.6556 8.02734 14.5199C8.73047 15.4135 10.0488 14.476 9.3457 13.5385C8.8623 12.8939 8.67188 12.4984 8.67188 11.7367C8.67188 10.4476 10.4004 9.3783 10.4004 7.4447ZM15.0146 7.4447C15.0146 5.52576 13.2861 4.45642 13.2861 3.13806C13.2861 2.40564 13.4766 2.01013 13.9746 1.33631C14.6631 0.398806 13.3594-0.538694 12.6562 0.369509C11.9531 1.24842 11.6602 2.05408 11.6602 3.03552C11.6602 5.02771 13.3594 6.00916 13.3594 7.4447C13.3594 8.8656 11.6602 9.8617 11.6602 11.8392C11.6602 12.85 11.9531 13.6556 12.6416 14.5199C13.3447 15.4135 14.6631 14.476 13.96 13.5385C13.4766 12.8939 13.2861 12.4984 13.2861 11.7367C13.2861 10.4476 15.0146 9.3783 15.0146 7.4447ZM19.6289 7.4447C19.6289 5.52576 17.9004 4.45642 17.9004 3.13806C17.9004 2.40564 18.0908 2.01013 18.5889 1.33631C19.2773 0.398806 17.9736-0.538694 17.2705 0.369509C16.5674 1.24842 16.2744 2.05408 16.2744 3.03552C16.2744 5.02771 17.9736 6.00916 17.9736 7.4447C17.9736 8.8656 16.2744 9.8617 16.2744 11.8392C16.2744 12.85 16.5674 13.6556 17.2559 14.5199C17.959 15.4135 19.2773 14.476 18.5742 13.5385C18.0908 12.8939 17.9004 12.4984 17.9004 11.7367C17.9004 10.4476 19.6289 9.3783 19.6289 7.4447Z" fill="currentColor" fill-opacity="0.85"/>
    </g>
</svg>
