<?xml version="1.0" encoding="UTF-8"?>
<svg version="1.1" xmlns="http://www.w3.org/2000/svg" viewBox="0 0 20.4854 36.1377">
    <g>
        <rect height="36.1377" opacity="0" width="20.4854" x="0" y="0"/>
        <path d="M5.02055 33.9697C6.25102 33.9697 7.01274 33.2812 6.99809 32.0801L6.70512 15.6299C6.70512 15.1172 6.92485 14.7363 7.37895 14.5312C9.31254 13.6816 10.1475 12.7881 10.045 10.2246L9.63481 1.23047C9.60551 0.585938 9.22465 0.219727 8.62406 0.219727C8.05278 0.219727 7.70121 0.600586 7.70121 1.25977L7.80375 10.0049C7.80375 10.5176 7.48149 10.8398 6.99809 10.8398C6.50004 10.8398 6.14848 10.5322 6.14848 10.0488L6.00199 0.996094C5.98735 0.366211 5.62113 0 5.02055 0C4.41996 0 4.0684 0.366211 4.05375 0.996094L3.90727 10.0488C3.90727 10.5322 3.55571 10.8398 3.05766 10.8398C2.57426 10.8398 2.23735 10.5176 2.23735 10.0049L2.33988 1.25977C2.33988 0.600586 2.00297 0.219727 1.41703 0.219727C0.816447 0.219727 0.435588 0.585938 0.406291 1.23047L0.0107834 10.2246C-0.106404 12.7881 0.728557 13.6816 2.66215 14.5312C3.11625 14.7363 3.33598 15.1172 3.33598 15.6299L3.05766 32.0801C3.04301 33.2812 3.79008 33.9697 5.02055 33.9697ZM16.4756 21.1963L16.168 32.0068C16.1241 33.2812 16.9004 33.9697 18.1163 33.9697C19.3614 33.9697 20.1231 33.3398 20.1231 32.168L20.1231 1.09863C20.1231 0.351562 19.6104 0 19.083 0C18.5264 0 18.1602 0.292969 17.6914 0.981445C15.333 4.29199 13.7803 10.4883 13.7803 16.3477L13.7803 17.0654C13.7803 18.0762 14.1465 18.8232 14.8789 19.3066L15.7432 19.8926C16.2705 20.2588 16.5049 20.6689 16.4756 21.1963Z" fill="currentColor" fill-opacity="0.85"/>
    </g>
</svg>
