<?xml version="1.0" encoding="UTF-8"?>
<svg version="1.1" xmlns="http://www.w3.org/2000/svg" viewBox="0 0 29.8828 20.6396">
    <g>
        <rect height="20.6396" opacity="0" width="29.8828" x="0" y="0"/>
        <path d="M9.78516 20.3613L28.3154 20.3613C28.9746 20.3613 29.5166 19.8486 29.5166 19.1895C29.5166 18.5156 28.9746 18.0029 28.3154 18.0029L9.78516 18.0029C9.11133 18.0029 8.59863 18.5156 8.59863 19.1895C8.59863 19.8486 9.11133 20.3613 9.78516 20.3613Z" fill="currentColor" fill-opacity="0.85"/>
        <path d="M1.4502 20.6396L3.95508 20.6396C4.76074 20.6396 5.41992 19.9805 5.41992 19.1895C5.41992 18.3691 4.76074 17.7246 3.95508 17.7246L1.4502 17.7246C0.644531 17.7246 0 18.3691 0 19.1895C0 19.9805 0.644531 20.6396 1.4502 20.6396Z" fill="currentColor" fill-opacity="0.85"/>
        <path d="M9.78516 11.5137L28.3154 11.5137C28.9746 11.5137 29.5166 10.9863 29.5166 10.3271C29.5166 9.66797 28.9746 9.15527 28.3154 9.15527L9.78516 9.15527C9.11133 9.15527 8.59863 9.66797 8.59863 10.3271C8.59863 10.9863 9.11133 11.5137 9.78516 11.5137Z" fill="currentColor" fill-opacity="0.85"/>
        <path d="M1.4502 11.792L3.95508 11.792C4.76074 11.792 5.41992 11.1328 5.41992 10.3271C5.41992 9.52148 4.76074 8.87695 3.95508 8.87695L1.4502 8.87695C0.644531 8.87695 0 9.52148 0 10.3271C0 11.1328 0.644531 11.792 1.4502 11.792Z" fill="currentColor" fill-opacity="0.85"/>
        <path d="M9.78516 2.65137L28.3154 2.65137C28.9746 2.65137 29.5166 2.13867 29.5166 1.47949C29.5166 0.805664 28.9746 0.292969 28.3154 0.292969L9.78516 0.292969C9.11133 0.292969 8.59863 0.805664 8.59863 1.47949C8.59863 2.13867 9.11133 2.65137 9.78516 2.65137Z" fill="currentColor" fill-opacity="0.85"/>
        <path d="M1.4502 2.92969L3.95508 2.92969C4.76074 2.92969 5.41992 2.27051 5.41992 1.47949C5.41992 0.65918 4.76074 0.0146484 3.95508 0.0146484L1.4502 0.0146484C0.644531 0.0146484 0 0.65918 0 1.47949C0 2.27051 0.644531 2.92969 1.4502 2.92969Z" fill="currentColor" fill-opacity="0.85"/>
    </g>
</svg>
