<svg viewBox="0 0 1002 623" fill="none" xmlns="http://www.w3.org/2000/svg">
<circle cx="892.322" cy="138.349" r="109.485" fill="#FDB61E"/>
<circle cx="12.4414" cy="12.4414" r="12.4414" transform="matrix(1 0 0 -1 690.272 90.5737)" fill="#FDB61E"/>
<circle cx="17.418" cy="17.418" r="17.418" transform="matrix(1 0 0 -1 508.129 34.8361)" fill="#FDB61E"/>
<circle cx="37.3244" cy="37.3244" r="37.3244" transform="matrix(1 0 0 -1 276.221 103.513)" fill="#FDB61E"/>
<circle cx="24.8829" cy="24.8829" r="24.8829" transform="matrix(1 0 0 -1 37.3452 162.236)" fill="#FDB61E"/>
<path d="M957.78 402.506C960.044 396.684 965.22 392.802 971.366 392.802H993.039C999.185 392.802 1003.39 398.948 1001.13 404.771C987.54 438.736 949.046 536.103 940.635 556.805C925.109 594.975 910.552 619.236 877.557 619.236C874.646 619.236 871.088 618.913 867.53 618.266C863.324 617.942 860.089 614.061 860.089 609.855V594.329C860.089 589.8 863.648 585.918 868.176 585.595C885.321 584.948 895.025 574.596 904.082 547.101C901.818 541.602 857.178 440.353 841.328 405.094C838.74 399.271 842.945 392.802 849.415 392.802H870.441C876.587 392.802 881.762 396.36 884.027 402.183L922.197 500.843L957.78 402.506Z" fill="white"/>
<path d="M777.104 342.016C777.104 335.547 782.28 330.371 788.75 330.371H806.864C813.011 330.371 818.186 335.547 818.186 342.016V545.16C818.186 551.63 813.011 556.805 806.864 556.805H788.75C782.28 556.805 777.104 551.63 777.104 545.16V342.016Z" fill="white"/>
<path d="M743.193 419.004C743.193 425.15 738.017 430.325 731.547 430.325H708.257V490.169C708.257 508.931 710.845 519.929 733.488 519.929C733.812 519.929 733.812 519.929 734.135 519.929C738.987 519.929 743.193 523.811 743.193 528.663V550.012C743.193 554.541 739.958 558.099 735.753 558.746C732.841 559.07 729.93 559.07 726.048 559.07C683.996 559.07 667.175 530.927 667.175 496.962V430.325H652.295C646.149 430.325 640.974 425.15 640.974 419.004V404.447C640.974 397.978 646.149 392.802 652.295 392.802H667.175V370.159C667.175 363.689 672.028 358.513 678.497 358.513H696.612C703.081 358.513 708.257 363.689 708.257 370.159V392.802H731.547C738.017 392.802 743.193 397.978 743.193 404.447V419.004Z" fill="white"/>
<path d="M557.738 388.92C599.143 388.92 617.905 422.239 617.905 457.174V545.16C617.905 551.63 612.73 556.805 606.26 556.805H588.469C581.999 556.805 576.824 551.63 576.824 545.16V465.585C576.824 444.558 568.09 428.708 544.799 428.708C520.538 428.708 509.864 446.499 509.864 465.585V545.16C509.864 551.63 505.012 556.805 498.542 556.805H480.427C474.281 556.805 469.105 551.63 469.105 545.16V342.016C469.105 335.547 474.281 330.371 480.427 330.371H498.542C505.012 330.371 509.864 335.547 509.864 342.016V412.858C518.921 399.595 533.801 388.92 557.738 388.92Z" fill="white"/>
<path d="M389.192 404.447C389.192 397.977 394.367 392.802 400.514 392.802H418.628C425.098 392.802 430.273 397.977 430.273 404.447V539.014C430.273 584.948 399.543 622.147 341.317 622.147C312.851 622.147 286.649 612.12 271.122 597.563C266.917 593.681 267.564 586.888 272.416 583.977L291.178 572.979C294.413 571.038 298.618 571.361 301.206 573.949C308.969 580.095 321.908 585.594 340.023 585.594C371.724 585.594 389.192 567.803 389.192 536.102V523.81C379.164 538.367 362.99 549.365 337.435 549.365C287.943 549.365 257.86 511.195 257.86 469.143C257.86 426.767 287.943 388.92 337.435 388.92C362.99 388.92 379.164 399.918 389.192 414.151V404.447ZM343.581 512.812C371.077 512.812 387.251 492.756 387.251 469.143C387.251 445.205 371.077 425.473 343.581 425.473C317.056 425.473 299.912 444.558 299.912 469.143C299.912 493.403 317.056 512.812 343.581 512.812Z" fill="white"/>
<path d="M199.288 556.805C192.818 556.805 187.643 551.629 187.643 545.16V404.447C187.643 397.978 192.818 392.802 199.288 392.802H217.079C223.549 392.802 228.724 397.978 228.724 404.447V545.16C228.724 551.629 223.549 556.805 217.079 556.805H199.288ZM208.022 368.865C196.053 368.865 186.349 358.837 186.349 346.868C186.349 334.899 196.053 324.872 208.022 324.872C220.314 324.872 230.018 334.899 230.018 346.868C230.018 358.837 220.314 368.865 208.022 368.865Z" fill="white"/>
<path d="M88.6329 388.92C130.038 388.92 148.8 422.238 148.8 457.174V545.16C148.8 551.629 143.624 556.805 137.155 556.805H119.363C112.894 556.805 107.718 551.629 107.718 545.16V465.584C107.718 444.558 98.9842 428.708 75.6938 428.708C51.433 428.708 40.7582 446.499 40.7582 465.584V545.16C40.7582 551.629 35.5825 556.805 29.4365 556.805H11.3217C5.17565 556.805 0 551.629 0 545.16V404.447C0 397.977 5.17565 392.802 11.3217 392.802H29.4365C35.5825 392.802 40.7582 397.977 40.7582 404.447V412.857C49.8156 399.595 64.6956 388.92 88.6329 388.92Z" fill="white"/>
</svg>
