<?xml version="1.0" encoding="UTF-8"?>
<svg version="1.1" xmlns="http://www.w3.org/2000/svg" viewBox="0 0 30.249 29.8975">
    <g>
        <rect height="29.8975" opacity="0" width="30.249" x="0" y="0"/>
        <path d="M14.9414 29.8828C23.1885 29.8828 29.8828 23.1885 29.8828 14.9414C29.8828 6.69434 23.1885 0 14.9414 0C6.69434 0 0 6.69434 0 14.9414C0 23.1885 6.69434 29.8828 14.9414 29.8828ZM14.9414 27.3926C8.05664 27.3926 2.49023 21.8262 2.49023 14.9414C2.49023 8.05664 8.05664 2.49023 14.9414 2.49023C21.8262 2.49023 27.3926 8.05664 27.3926 14.9414C27.3926 21.8262 21.8262 27.3926 14.9414 27.3926Z" fill="currentColor" fill-opacity="0.85"/>
        <path d="M11.7773 21.6504C12.5537 21.6504 12.9639 21.1377 12.9639 20.332L12.9639 17.124L15.8496 17.124C18.7061 17.124 20.625 15.3369 20.625 12.6416C20.625 9.94629 18.6914 8.12988 15.8643 8.12988L11.7627 8.12988C11.0156 8.12988 10.6201 8.65723 10.6201 9.44824L10.6201 20.332C10.6201 21.1084 11.0303 21.6504 11.7773 21.6504ZM12.9639 15.3369L12.9639 9.91699L15.5273 9.91699C17.2412 9.91699 18.3105 10.957 18.3105 12.6416C18.3105 14.2969 17.2559 15.3369 15.5273 15.3369Z" fill="currentColor" fill-opacity="0.85"/>
    </g>
</svg>
