<?xml version="1.0" encoding="UTF-8"?>
<svg version="1.1" xmlns="http://www.w3.org/2000/svg" viewBox="0 0 31.1865 30.0146">
    <g>
        <rect height="30.0146" opacity="0" width="31.1865" x="0" y="0"/>
        <path d="M0 13.5791C0 16.4795 1.52344 18.7061 3.50098 18.7061C5.47852 18.7061 7.0166 16.4795 7.0166 13.5791C7.0166 10.6934 5.47852 8.45215 3.50098 8.45215C1.52344 8.45215 0 10.6934 0 13.5791ZM7.10449 5.12695C7.10449 8.0127 8.65723 10.2393 10.6201 10.2393C12.6123 10.2393 14.1504 7.99805 14.1504 5.12695C14.1504 2.22656 12.6123 0 10.6201 0C8.65723 0 7.10449 2.22656 7.10449 5.12695ZM16.6846 5.12695C16.6846 7.99805 18.208 10.2393 20.2002 10.2393C22.1631 10.2393 23.7158 8.0127 23.7158 5.12695C23.7158 2.22656 22.1631 0 20.2002 0C18.208 0 16.6846 2.22656 16.6846 5.12695ZM23.8037 13.5791C23.8037 16.4795 25.3418 18.7061 27.3193 18.7061C29.2969 18.7061 30.8203 16.4795 30.8203 13.5791C30.8203 10.6934 29.2969 8.45215 27.3193 8.45215C25.3418 8.45215 23.8037 10.6934 23.8037 13.5791ZM4.39453 24.917C4.39453 27.876 6.38672 29.9854 9.31641 29.9854C10.7666 29.9854 11.8213 29.5752 12.832 29.2236C13.6523 28.9307 14.4434 28.667 15.4102 28.667C16.3623 28.667 17.1533 28.9307 17.9883 29.2236C18.999 29.5752 20.0391 29.9854 21.4893 29.9854C24.4336 29.9854 26.4258 27.876 26.4258 24.917C26.4258 22.3975 24.917 21.123 23.4668 19.9365C22.6611 19.292 21.8848 18.6768 21.3574 17.8564C20.918 17.1973 20.5518 16.4795 20.2441 15.8057C19.1895 13.5498 18.3545 11.4258 15.4102 11.4258C12.4512 11.4258 11.6309 13.5498 10.5762 15.791C10.2539 16.4795 9.90234 17.1826 9.47754 17.8271C8.93555 18.6475 8.14453 19.292 7.35352 19.9365C5.90332 21.123 4.39453 22.4121 4.39453 24.917Z" fill="currentColor" fill-opacity="0.85"/>
    </g>
</svg>
