<?xml version="1.0" encoding="UTF-8"?>
<svg version="1.1" xmlns="http://www.w3.org/2000/svg" viewBox="0 0 32.0215 26.9971">
    <g>
        <rect height="26.9971" opacity="0" width="32.0215" x="0" y="0"/>
        <path d="M3.36914 26.9971L28.2861 26.9971C30.5273 26.9971 31.6553 25.9131 31.6553 23.6572L31.6553 18.0469C31.6553 15.8203 30.5273 14.7217 28.2861 14.7217L3.36914 14.7217C1.12793 14.7217 0 15.8203 0 18.0469L0 23.6572C0 25.9131 1.12793 26.9971 3.36914 26.9971Z" fill="currentColor" fill-opacity="0.85"/>
        <path d="M3.36914 12.3047L28.2861 12.3047C30.5273 12.3047 31.6553 11.2061 31.6553 8.9502L31.6553 3.35449C31.6553 1.11328 30.5273 0.0292969 28.2861 0.0292969L3.36914 0.0292969C1.12793 0.0292969 0 1.11328 0 3.35449L0 8.9502C0 11.2061 1.12793 12.3047 3.36914 12.3047Z" fill="currentColor" fill-opacity="0.85"/>
    </g>
</svg>
