<?xml version="1.0" encoding="UTF-8"?>
<svg version="1.1" xmlns="http://www.w3.org/2000/svg" viewBox="0 0 26.3222 29.6338">
    <g>
        <rect height="29.6338" opacity="0" width="26.3222" x="0" y="0"/>
        <path d="M12.978 29.6191C13.6225 29.6191 14.0034 29.165 14.0034 28.5352L14.0034 25.3564L16.5229 26.792C17.0649 27.085 17.6215 27.041 17.9292 26.499C18.1928 26.0449 18.0317 25.4736 17.4751 25.166L14.0034 23.1885L14.0034 21.3281L13.7104 16.0986L18.1196 18.9551L19.7456 19.8779L19.7163 23.877C19.7163 24.5068 20.1118 24.9609 20.6245 24.9609C21.2544 24.9609 21.5766 24.4922 21.5766 23.877L21.5913 20.9473L24.3598 22.5586C24.9311 22.8955 25.4731 22.749 25.7807 22.2217C26.0883 21.665 25.9272 21.0938 25.3852 20.7861L22.6167 19.1895L25.1362 17.71C25.6635 17.3877 25.8979 16.8896 25.5903 16.3623C25.2973 15.8936 24.7407 15.7617 24.1987 16.084L20.7563 18.1055L19.1303 17.1826L14.3989 14.8096L19.145 12.4365L20.7417 11.499L24.184 13.5205C24.726 13.8428 25.3266 13.7109 25.6049 13.2568C25.8979 12.7295 25.6635 12.2168 25.1362 11.8945L22.6167 10.4297L25.3852 8.83301C25.9419 8.51074 26.103 7.9541 25.7954 7.39746C25.4878 6.87012 24.9311 6.73828 24.3745 7.06055L21.5913 8.64258L21.562 5.72754C21.562 5.09766 21.2544 4.6582 20.6391 4.6582C20.0971 4.6582 19.7163 5.09766 19.7163 5.72754L19.7309 9.71191L18.1196 10.6494L13.7104 13.5205L14.0034 8.27637L14.0034 6.41602L17.4751 4.45312C18.0317 4.13086 18.1928 3.57422 17.9292 3.10547C17.6215 2.57812 17.0649 2.51953 16.5229 2.82715L14.0034 4.2627L14.0034 1.06934C14.0034 0.439453 13.6225 0 12.978 0C12.3628 0 11.9672 0.439453 11.9672 1.06934L11.9672 4.2627L9.40377 2.82715C8.86178 2.51953 8.33444 2.57812 8.01217 3.10547C7.7485 3.57422 7.92428 4.13086 8.48092 4.43848L11.9672 6.41602L11.9672 8.27637L12.2456 13.5205L7.83639 10.6494L6.21041 9.71191L6.23971 5.72754C6.23971 5.09766 5.85885 4.6582 5.33151 4.6582C4.70162 4.6582 4.37936 5.1123 4.37936 5.72754L4.36471 8.64258L1.58151 7.06055C1.03951 6.75293 0.453576 6.87012 0.160608 7.39746C-0.161658 7.9541 0.0141232 8.52539 0.570764 8.83301L3.32467 10.4297L0.819787 11.8945C0.292444 12.2168 0.0580685 12.6855 0.351037 13.2568C0.614709 13.7256 1.2153 13.8428 1.77194 13.5205L5.19967 11.5137L6.811 12.4365L11.5424 14.8096L6.811 17.1826L5.19967 18.1201L1.75729 16.084C1.2153 15.7617 0.629358 15.8936 0.380334 16.3477C0.072717 16.9189 0.292444 17.3877 0.819787 17.71L3.33932 19.1895L0.570764 20.7861C0.0287717 21.0938-0.14701 21.6797 0.160608 22.207C0.482873 22.7637 1.03951 22.8662 1.58151 22.5586L4.36471 20.9766L4.37936 23.877C4.37936 24.4922 4.70162 24.9609 5.31686 24.9609C5.8442 24.9609 6.23971 24.5068 6.23971 23.877L6.22506 19.8779L7.83639 18.9697L12.2456 16.0986L11.9672 21.3281L11.9672 23.1885L8.48092 25.166C7.92428 25.4736 7.7485 26.0449 8.01217 26.499C8.33444 27.041 8.86178 27.085 9.40377 26.792L11.9672 25.3418L11.9672 28.5352C11.9672 29.165 12.3628 29.6191 12.978 29.6191Z" fill="currentColor" fill-opacity="0.85"/>
    </g>
</svg>
