<?xml version="1.0" encoding="UTF-8"?>
<svg version="1.1" xmlns="http://www.w3.org/2000/svg" viewBox="0 0 32.9032 33.1787">
    <g>
        <rect height="33.1787" opacity="0" width="32.9032" x="0" y="0"/>
        <path d="M6.24164 30.8203C6.84223 31.2891 7.60395 31.1279 8.51215 30.4688L16.2612 24.7705L24.0248 30.4688C24.933 31.1279 25.6801 31.2891 26.2954 30.8203C26.8959 30.3662 27.0278 29.6191 26.6616 28.5498L23.6 19.4385L31.4223 13.8135C32.3305 13.1689 32.6967 12.4951 32.4623 11.7627C32.228 11.0596 31.5395 10.7227 30.4116 10.7227L20.8168 10.7227L17.9018 1.62598C17.5502 0.541992 17.0229 0 16.2612 0C15.5141 0 14.9868 0.541992 14.6352 1.62598L11.7202 10.7227L2.12543 10.7227C0.997502 10.7227 0.309025 11.0596 0.0746501 11.7627C-0.174373 12.4951 0.206486 13.1689 1.11469 13.8135L8.93695 19.4385L5.87543 28.5498C5.50922 29.6191 5.64106 30.3662 6.24164 30.8203Z" fill="currentColor" fill-opacity="0.85"/>
    </g>
</svg>
