<?xml version="1.0" encoding="UTF-8"?>
<svg version="1.1" xmlns="http://www.w3.org/2000/svg" viewBox="0 0 32.9032 33.1787">
    <g>
        <rect height="33.1787" opacity="0" width="32.9032" x="0" y="0"/>
        <path d="M6.24164 30.8203C6.84223 31.2891 7.60395 31.1279 8.51215 30.4688L16.2612 24.7705L24.0248 30.4688C24.933 31.1279 25.6801 31.2891 26.2954 30.8203C26.8959 30.3662 27.0278 29.6191 26.6616 28.5498L23.6 19.4385L31.4223 13.8135C32.3305 13.1689 32.6967 12.4951 32.4623 11.7627C32.228 11.0596 31.5395 10.708 30.4116 10.7227L20.8168 10.7812L17.9018 1.62598C17.5502 0.541992 17.0229 0 16.2612 0C15.5141 0 14.9868 0.541992 14.6352 1.62598L11.7202 10.7812L2.12543 10.7227C0.997502 10.708 0.309025 11.0596 0.0746501 11.7627C-0.174373 12.4951 0.206486 13.1689 1.11469 13.8135L8.93695 19.4385L5.87543 28.5498C5.50922 29.6191 5.64106 30.3662 6.24164 30.8203ZM8.35102 27.9199C8.32172 27.8906 8.33637 27.876 8.35102 27.7881L11.2661 19.4092C11.4711 18.8379 11.3539 18.3838 10.8413 18.0322L3.54633 12.9932C3.47309 12.9492 3.45844 12.9199 3.47309 12.876C3.48774 12.832 3.51703 12.832 3.60492 12.832L12.4672 12.9932C13.0678 13.0078 13.4487 12.7588 13.6391 12.1582L16.1879 3.67676C16.2026 3.58887 16.2319 3.55957 16.2612 3.55957C16.3051 3.55957 16.3344 3.58887 16.3491 3.67676L18.8979 12.1582C19.0883 12.7588 19.4692 13.0078 20.0698 12.9932L28.9321 12.832C29.02 12.832 29.0493 12.832 29.0639 12.876C29.0786 12.9199 29.0493 12.9492 28.9907 12.9932L21.6957 18.0322C21.183 18.3838 21.0659 18.8379 21.2709 19.4092L24.186 27.7881C24.2006 27.876 24.2153 27.8906 24.186 27.9199C24.1567 27.9639 24.1127 27.9346 24.0541 27.8906L17.0082 22.5146C16.5395 22.1484 15.9975 22.1484 15.5288 22.5146L8.48285 27.8906C8.42426 27.9346 8.38031 27.9639 8.35102 27.9199Z" fill="currentColor" fill-opacity="0.85"/>
    </g>
</svg>
