<?xml version="1.0" encoding="UTF-8"?>
<svg version="1.1" xmlns="http://www.w3.org/2000/svg" viewBox="0 0 35.0391 19.4678">
    <g>
        <rect height="19.4678" opacity="0" width="35.0391" x="0" y="0"/>
        <path d="M25.0635 7.57324C26.8359 7.57324 28.2568 6.1377 28.2568 4.36523C28.2568 2.59277 26.8359 1.17188 25.0635 1.17188C23.291 1.17188 21.8555 2.59277 21.8555 4.36523C21.8555 6.1377 23.291 7.57324 25.0635 7.57324ZM12.5244 9.65332C14.1797 10.3564 15.1172 11.5283 17.3291 11.5283C19.9219 11.5283 20.6543 9.93164 22.9541 9.3457L14.6777 0.74707C14.0332 0.0732422 13.0518-0.0146484 12.2754 0.556641L6.51855 4.62891C5.53711 5.33203 5.625 6.37207 6.19629 7.00195C6.67969 7.5293 7.5293 7.73438 8.34961 7.16309L13.0225 3.86719L15.6592 6.57715C15.9521 6.88477 16.04 7.33887 15.5859 7.64648ZM0.820312 15.3955L2.2998 15.3955C6.21094 15.3955 7.10449 12.9932 9.81445 12.9932C12.5244 12.9932 13.418 15.3955 17.3291 15.3955C21.2549 15.3955 22.1338 12.9932 24.8584 12.9932C27.5684 12.9932 28.4473 15.3955 32.373 15.3955L33.8525 15.3955C34.3066 15.3955 34.6729 15.0439 34.6729 14.5898C34.6729 14.1357 34.3066 13.7695 33.8525 13.7695L32.373 13.7695C29.5605 13.7695 28.6084 11.3672 24.8584 11.3672C21.0938 11.3672 20.1416 13.7695 17.3291 13.7695C14.5166 13.7695 13.5791 11.3672 9.81445 11.3672C6.06445 11.3672 5.1123 13.7695 2.2998 13.7695L0.820312 13.7695C0.351562 13.7695 0 14.1357 0 14.5898C0 15.0439 0.351562 15.3955 0.820312 15.3955ZM1.20117 19.4678C1.68457 19.4678 2.06543 19.0869 2.06543 18.6035C2.06543 18.1348 1.68457 17.7539 1.20117 17.7539C0.732422 17.7539 0.351562 18.1348 0.351562 18.6035C0.351562 19.0869 0.732422 19.4678 1.20117 19.4678ZM3.95508 18.9697C4.42383 18.9697 4.80469 18.6035 4.80469 18.1201C4.80469 17.6367 4.42383 17.2705 3.95508 17.2705C3.47168 17.2705 3.09082 17.6367 3.09082 18.1201C3.09082 18.6035 3.47168 18.9697 3.95508 18.9697ZM6.51855 17.7686C7.00195 17.7686 7.38281 17.3877 7.38281 16.9043C7.38281 16.4355 7.00195 16.0547 6.51855 16.0547C6.0498 16.0547 5.66895 16.4355 5.66895 16.9043C5.66895 17.3877 6.0498 17.7686 6.51855 17.7686ZM9.28711 17.1094C9.77051 17.1094 10.1514 16.7285 10.1514 16.2451C10.1514 15.7764 9.77051 15.3955 9.28711 15.3955C8.81836 15.3955 8.4375 15.7764 8.4375 16.2451C8.4375 16.7285 8.81836 17.1094 9.28711 17.1094ZM12.0557 17.7686C12.5391 17.7686 12.9053 17.3877 12.9053 16.9043C12.9053 16.4355 12.5391 16.0547 12.0557 16.0547C11.5723 16.0547 11.2061 16.4355 11.2061 16.9043C11.2061 17.3877 11.5723 17.7686 12.0557 17.7686ZM14.6484 18.9697C15.1318 18.9697 15.5127 18.6035 15.5127 18.1201C15.5127 17.6367 15.1318 17.2705 14.6484 17.2705C14.1797 17.2705 13.7988 17.6367 13.7988 18.1201C13.7988 18.6035 14.1797 18.9697 14.6484 18.9697ZM17.3584 19.4678C17.8271 19.4678 18.208 19.0869 18.208 18.6035C18.208 18.1348 17.8271 17.7539 17.3584 17.7539C16.875 17.7539 16.4941 18.1348 16.4941 18.6035C16.4941 19.0869 16.875 19.4678 17.3584 19.4678ZM20.0537 18.9697C20.5371 18.9697 20.9033 18.6035 20.9033 18.1201C20.9033 17.6367 20.5371 17.2705 20.0537 17.2705C19.5703 17.2705 19.2041 17.6367 19.2041 18.1201C19.2041 18.6035 19.5703 18.9697 20.0537 18.9697ZM22.6465 17.7686C23.1299 17.7686 23.5107 17.3877 23.5107 16.9043C23.5107 16.4355 23.1299 16.0547 22.6465 16.0547C22.1777 16.0547 21.7969 16.4355 21.7969 16.9043C21.7969 17.3877 22.1777 17.7686 22.6465 17.7686ZM25.415 17.1094C25.8984 17.1094 26.2646 16.7285 26.2646 16.2451C26.2646 15.7764 25.8984 15.3955 25.415 15.3955C24.9316 15.3955 24.5654 15.7764 24.5654 16.2451C24.5654 16.7285 24.9316 17.1094 25.415 17.1094ZM28.1836 17.7686C28.667 17.7686 29.0332 17.3877 29.0332 16.9043C29.0332 16.4355 28.667 16.0547 28.1836 16.0547C27.7002 16.0547 27.334 16.4355 27.334 16.9043C27.334 17.3877 27.7002 17.7686 28.1836 17.7686ZM30.7617 18.9697C31.2451 18.9697 31.6113 18.6035 31.6113 18.1201C31.6113 17.6367 31.2451 17.2705 30.7617 17.2705C30.2783 17.2705 29.9121 17.6367 29.9121 18.1201C29.9121 18.6035 30.2783 18.9697 30.7617 18.9697ZM33.4863 19.4678C33.9697 19.4678 34.3506 19.0869 34.3506 18.6035C34.3506 18.1348 33.9697 17.7539 33.4863 17.7539C33.0176 17.7539 32.6367 18.1348 32.6367 18.6035C32.6367 19.0869 33.0176 19.4678 33.4863 19.4678Z" fill="currentColor" fill-opacity="0.85"/>
    </g>
</svg>
