<?xml version="1.0" encoding="UTF-8"?>
<svg version="1.1" xmlns="http://www.w3.org/2000/svg" viewBox="0 0 35.7275 33.1201">
    <g>
        <rect height="33.1201" opacity="0" width="35.7275" x="0" y="0"/>
        <path d="M17.6514 5.90332C19.292 5.90332 20.625 4.59961 20.625 2.97363C20.625 1.31836 19.292 0 17.6514 0C16.0254 0 14.707 1.31836 14.707 2.97363C14.707 4.59961 16.0254 5.90332 17.6514 5.90332ZM13.0371 17.7246L18.208 20.625L14.8828 23.4961C14.1504 24.126 14.1797 24.917 14.5898 25.4004C15.0586 25.8984 15.8643 26.0156 16.5967 25.3857L21.2695 21.4014C21.9141 20.8447 21.8115 19.7021 21.0352 19.1895L15.9668 15.8496L16.9629 12.3486C17.1094 11.8506 17.6807 11.7627 17.9883 12.2168L19.4678 14.3848C19.8193 14.9121 20.4492 15.0732 21.0352 14.8242L25.3418 12.9053C26.1035 12.5684 26.3818 11.9092 26.0449 11.2207C25.7373 10.5322 25.0635 10.3271 24.3018 10.6787L20.9033 12.1729L18.5596 8.93555C17.3291 7.26562 15.8203 6.5625 13.3447 6.73828L8.55469 7.08984C7.79297 7.14844 7.29492 7.64648 7.19238 8.42285L6.54785 13.2422C6.44531 14.0918 6.84082 14.6777 7.60254 14.7656C8.36426 14.8242 8.81836 14.3848 8.93555 13.5498L9.53613 9.60938L11.4551 9.46289C11.8652 9.43359 12.29 9.72656 12.1436 10.2539L11.0303 14.1357C10.3711 16.4062 11.8506 17.0654 13.0371 17.7246ZM3.95508 29.3994C4.46777 29.8535 5.22949 29.9121 5.91797 29.2383L10.3271 24.873C10.6934 24.5215 10.7666 24.4336 10.9863 23.8623L12.7881 19.2041L12.334 18.9404C11.4258 18.4277 10.6787 17.9443 10.1367 17.2559L8.55469 22.8223L3.98438 27.3633C3.2666 28.0811 3.39844 28.9307 3.95508 29.3994ZM26.9678 16.4209C27.1289 16.8018 27.627 16.9922 28.0664 16.7871L34.8926 13.6084C35.3027 13.4033 35.4785 12.9199 35.2881 12.4951C35.1123 12.1143 34.6289 11.9385 34.1895 12.1436L27.3633 15.3223C26.9531 15.5273 26.7627 16.0107 26.9678 16.4209ZM27.7148 28.5205L29.0479 28.4326C29.1943 28.4326 29.2676 28.418 29.3701 28.4326L31.8604 14.209L30.0879 15ZM0.761719 33.1055L29.5898 33.1055C30.498 33.1055 31.2158 32.3877 31.2158 31.4502C31.2158 30.3809 30.3955 29.7803 29.2676 29.8535L0.761719 31.5527C0.336914 31.5967 0 31.9043 0 32.3438C0 32.7686 0.336914 33.1055 0.761719 33.1055Z" fill="currentColor" fill-opacity="0.85"/>
    </g>
</svg>
