<?xml version="1.0" encoding="UTF-8"?>
<svg version="1.1" xmlns="http://www.w3.org/2000/svg" viewBox="0 0 24.1115 32.2705">
    <g>
        <rect height="32.2705" opacity="0" width="24.1115" x="0" y="0"/>
        <path d="M16.8312 6.48926C18.6036 6.48926 20.0245 5.06836 20.0245 3.2959C20.0245 1.53809 18.6036 0.117188 16.8312 0.117188C15.0587 0.117188 13.6378 1.53809 13.6378 3.2959C13.6378 5.06836 15.0587 6.48926 16.8312 6.48926ZM11.4405 32.2705C17.8273 32.2705 22.09 28.0078 22.09 21.6211C22.09 18.2666 20.4933 16.3037 17.505 16.3037L15.5421 16.3037C15.2052 16.3037 14.9855 16.084 15.1173 15.6738L16.465 11.5869C17.0802 9.71191 16.2013 8.0127 14.1212 7.48535L8.0714 5.96191C7.48546 5.81543 7.04601 5.91797 6.51867 6.22559L0.644642 9.53613C-0.0438348 9.93164-0.204968 10.9424 0.278431 11.5869C0.747181 12.2461 1.58214 12.3633 2.32921 11.9824L7.71984 9.12598L10.8693 9.96094C11.4845 10.1367 11.7189 10.5615 11.5138 11.1328L9.85851 15.7764C9.09679 17.959 10.3859 19.8193 12.4952 19.8193L17.9444 19.8193C19.0724 19.8193 19.8634 20.4932 19.8634 21.6211C19.8634 26.6748 16.5089 30.0439 11.4552 30.0439C6.40148 30.0439 3.01769 26.6748 3.01769 21.6211C3.01769 19.8779 3.53038 18.3545 4.37999 17.0801C5.33214 15.6592 3.44249 14.4727 2.4464 15.9668C1.42101 17.5342 0.791126 19.4531 0.791126 21.6211C0.791126 28.0078 5.03917 32.2705 11.4405 32.2705ZM22.1339 32.2705C23.0275 32.2705 23.7452 31.5527 23.7452 30.6592C23.7452 29.7656 23.0275 29.0479 22.1339 29.0479C21.2403 29.0479 20.5226 29.7656 20.5226 30.6592C20.5226 31.5527 21.2403 32.2705 22.1339 32.2705Z" fill="currentColor" fill-opacity="0.85"/>
    </g>
</svg>
