<?xml version="1.0" encoding="UTF-8"?>
<svg version="1.1" xmlns="http://www.w3.org/2000/svg" viewBox="0 0 34.0914 24.3604">
    <g>
        <rect height="24.3604" opacity="0" width="34.0914" x="0" y="0"/>
        <path d="M2.21414 10.2686C2.50711 10.5469 2.91727 10.5469 3.19559 10.2539C6.79911 6.43066 11.5452 4.40918 16.8626 4.40918C22.2093 4.40918 26.9847 6.44531 30.5589 10.2686C30.8225 10.5322 31.2181 10.5176 31.511 10.2393L33.5325 8.21777C33.7962 7.9541 33.7815 7.63184 33.5764 7.38281C30.1341 3.13477 23.6595 0.0146484 16.8626 0.0146484C10.0804 0.0146484 3.57645 3.13477 0.148715 7.38281C-0.0563634 7.63184-0.0563634 7.9541 0.19266 8.21777Z" fill="currentColor" fill-opacity="0.85"/>
        <path d="M8.29325 16.3916C8.61551 16.6992 9.01102 16.6553 9.30399 16.333C11.0618 14.3848 13.9329 12.9639 16.8626 12.9785C19.8216 12.9639 22.6927 14.4287 24.4798 16.377C24.7434 16.6846 25.1097 16.6699 25.4319 16.377L27.7024 14.1211C27.9368 13.8867 27.9661 13.5645 27.7464 13.3008C25.5345 10.5908 21.4329 8.55469 16.8626 8.55469C12.2923 8.55469 8.19071 10.5908 5.97879 13.3008C5.75907 13.5645 5.77371 13.8574 6.02274 14.1211Z" fill="currentColor" fill-opacity="0.85"/>
        <path d="M16.8626 24.3604C17.1848 24.3604 17.4632 24.2139 18.0345 23.6572L21.6087 20.2295C21.8284 20.0098 21.887 19.6875 21.6819 19.4238C20.7298 18.1934 18.928 17.124 16.8626 17.124C14.7386 17.124 12.9368 18.2373 11.9847 19.5117C11.8382 19.7461 11.8968 20.0098 12.1311 20.2295L15.6907 23.6572C16.262 24.1992 16.5403 24.3604 16.8626 24.3604Z" fill="currentColor" fill-opacity="0.85"/>
    </g>
</svg>
