<svg width="1200" height="1200" viewBox="0 0 1200 1200" fill="none" xmlns="http://www.w3.org/2000/svg">
<g clip-path="url(#clip0_2710_140)">
<rect width="1200" height="1200" fill="white"/>
<path d="M-1 0H1199V869L-1 770.824V0Z" fill="#025A64"/>
<path d="M832.798 709.038C832.798 836.6 750.713 907.641 603.713 907.641C456.714 907.641 337.548 804.232 337.548 676.671C380.285 519.863 456.714 445.701 603.713 445.701C750.713 445.701 863.909 662.216 832.798 709.038Z" fill="#519D93"/>
<circle cx="838.455" cy="404.22" r="69.134" fill="#FDB61E"/>
<circle cx="7.85613" cy="7.85613" r="7.85613" transform="matrix(1 0 0 -1 710.871 374.053)" fill="#FDB61E"/>
<circle cx="10.9986" cy="10.9986" r="10.9986" transform="matrix(1 0 0 -1 595.858 338.857)" fill="#FDB61E"/>
<circle cx="23.5684" cy="23.5684" r="23.5684" transform="matrix(1 0 0 -1 449.419 382.223)" fill="#FDB61E"/>
<path d="M299.392 548.304L221.906 601.881V665.358V915.812H948.441V725.536V535.261H823.529V674.157H806.791V545.945H745.11V655.302C732.424 657.383 719.364 657.37 706.676 655.302V568.856C706.676 566.854 705.924 564.924 704.57 563.448L611.174 461.657C609.193 459.498 605.787 459.498 603.806 461.657L510.41 563.448C509.056 564.924 508.304 566.854 508.304 568.856V614.765L503.104 614.378C498.117 614.008 493.11 614.012 488.124 614.391L483.198 614.765V505.407H488.29C490.072 505.407 490.964 503.254 489.705 501.994L436.987 449.24C435.034 447.286 431.866 447.286 429.913 449.24L377.195 501.994C375.936 503.254 376.828 505.407 378.61 505.407H383.702V601.881L306.216 548.304C304.163 546.885 301.445 546.885 299.392 548.304Z" fill="#171C42"/>
<circle cx="15.7123" cy="15.7123" r="15.7123" transform="matrix(1 0 0 -1 298.582 419.304)" fill="#FDB61E"/>
<path d="M-1 713.816L450.005 673.895C516.832 667.98 584.085 668.805 650.747 676.357L1199 738.47V1200H-1V713.816Z" fill="#171C42"/>
<path d="M891.114 731.648C892.544 727.971 895.812 725.52 899.693 725.52H913.379C917.26 725.52 919.915 729.401 918.485 733.078C909.906 754.525 885.599 816.007 880.289 829.08C870.484 853.183 861.293 868.502 840.458 868.502C838.62 868.502 836.373 868.298 834.126 867.889C831.471 867.685 829.428 865.234 829.428 862.578V852.774C829.428 849.914 831.675 847.463 834.535 847.259C845.36 846.85 851.488 840.314 857.207 822.952C855.778 819.48 827.59 755.547 817.581 733.282C815.947 729.606 818.602 725.52 822.688 725.52H835.964C839.845 725.52 843.113 727.767 844.543 731.444L868.646 793.743L891.114 731.648Z" fill="white"/>
<path d="M777.028 693.452C777.028 689.367 780.296 686.098 784.381 686.098H795.819C799.7 686.098 802.969 689.367 802.969 693.452V821.727C802.969 825.812 799.7 829.08 795.819 829.08H784.381C780.296 829.08 777.028 825.812 777.028 821.727V693.452Z" fill="white"/>
<path d="M755.614 742.065C755.614 745.946 752.346 749.214 748.261 749.214H733.554V787.002C733.554 798.85 735.188 805.794 749.486 805.794C749.69 805.794 749.69 805.794 749.895 805.794C752.958 805.794 755.614 808.245 755.614 811.309V824.79C755.614 827.65 753.571 829.897 750.916 830.305C749.078 830.51 747.239 830.51 744.788 830.51C718.234 830.51 707.613 812.739 707.613 791.292V749.214H698.217C694.336 749.214 691.068 745.946 691.068 742.065V732.874C691.068 728.789 694.336 725.52 698.217 725.52H707.613V711.222C707.613 707.137 710.677 703.869 714.762 703.869H726.2C730.286 703.869 733.554 707.137 733.554 711.222V725.52H748.261C752.346 725.52 755.614 728.789 755.614 732.874V742.065Z" fill="white"/>
<path d="M638.509 723.069C664.655 723.069 676.502 744.108 676.502 766.168V821.727C676.502 825.812 673.233 829.08 669.148 829.08H657.914C653.829 829.08 650.561 825.812 650.561 821.727V771.479C650.561 758.202 645.046 748.193 630.339 748.193C615.019 748.193 608.279 759.428 608.279 771.479V821.727C608.279 825.812 605.215 829.08 601.13 829.08H589.691C585.81 829.08 582.542 825.812 582.542 821.727V693.452C582.542 689.367 585.81 686.098 589.691 686.098H601.13C605.215 686.098 608.279 689.367 608.279 693.452V738.185C613.998 729.81 623.394 723.069 638.509 723.069Z" fill="white"/>
<path d="M532.081 732.874C532.081 728.788 535.349 725.52 539.23 725.52H550.668C554.753 725.52 558.022 728.788 558.022 732.874V817.846C558.022 846.85 538.617 870.34 501.85 870.34C483.875 870.34 467.33 864.008 457.526 854.817C454.871 852.365 455.279 848.076 458.343 846.238L470.19 839.293C472.233 838.067 474.888 838.272 476.522 839.906C481.424 843.787 489.595 847.259 501.033 847.259C521.051 847.259 532.081 836.025 532.081 816.007V808.245C525.749 817.437 515.536 824.382 499.399 824.382C468.147 824.382 449.151 800.279 449.151 773.726C449.151 746.968 468.147 723.069 499.399 723.069C515.536 723.069 525.749 730.014 532.081 739.001V732.874ZM503.28 801.301C520.642 801.301 530.855 788.636 530.855 773.726C530.855 758.61 520.642 746.151 503.28 746.151C486.531 746.151 475.705 758.202 475.705 773.726C475.705 789.045 486.531 801.301 503.28 801.301Z" fill="white"/>
<path d="M412.166 829.08C408.081 829.08 404.813 825.812 404.813 821.727V732.874C404.813 728.788 408.081 725.52 412.166 725.52H423.4C427.485 725.52 430.754 728.788 430.754 732.874V821.727C430.754 825.812 427.485 829.08 423.4 829.08H412.166ZM417.681 710.405C410.123 710.405 403.996 704.073 403.996 696.515C403.996 688.958 410.123 682.626 417.681 682.626C425.443 682.626 431.571 688.958 431.571 696.515C431.571 704.073 425.443 710.405 417.681 710.405Z" fill="white"/>
<path d="M342.293 723.069C368.438 723.069 380.286 744.108 380.286 766.168V821.727C380.286 825.812 377.017 829.08 372.932 829.08H361.698C357.613 829.08 354.345 825.812 354.345 821.727V771.479C354.345 758.202 348.83 748.193 334.123 748.193C318.803 748.193 312.063 759.427 312.063 771.479V821.727C312.063 825.812 308.795 829.08 304.914 829.08H293.475C289.594 829.08 286.326 825.812 286.326 821.727V732.874C286.326 728.788 289.594 725.52 293.475 725.52H304.914C308.795 725.52 312.063 728.788 312.063 732.874V738.184C317.782 729.81 327.178 723.069 342.293 723.069Z" fill="white"/>
<rect x="268.414" y="612.879" width="15.7123" height="15.7123" rx="3" fill="#F5B916"/>
<rect x="321.836" y="612.879" width="15.7123" height="15.7123" rx="3" fill="#F5B916"/>
<path d="M407.311 523.634C407.311 518.427 411.531 514.206 416.738 514.206V514.206C421.944 514.206 426.165 518.427 426.165 523.634V547.402C426.165 548.506 425.27 549.402 424.165 549.402H409.311C408.206 549.402 407.311 548.506 407.311 547.402V523.634Z" fill="#F5B916"/>
<path d="M439.992 523.634C439.992 518.427 444.213 514.206 449.42 514.206V514.206C454.626 514.206 458.847 518.427 458.847 523.634V547.402C458.847 548.506 457.951 549.402 456.847 549.402H441.992C440.888 549.402 439.992 548.506 439.992 547.402V523.634Z" fill="#F5B916"/>
<path d="M593.888 615.476C593.888 607.794 600.115 601.566 607.797 601.566V601.566C615.479 601.566 621.706 607.794 621.706 615.475V652.988C621.706 654.093 620.81 654.988 619.706 654.988H595.888C594.783 654.988 593.888 654.093 593.888 652.988V615.476Z" fill="#F5B916"/>
<rect x="593.891" y="622.935" width="27.817" height="1.57123" fill="#171C42"/>
<path d="M593.891 639.276H621.708V640.847H593.891V639.276Z" fill="#171C42"/>
<path d="M636.545 615.476C636.545 607.794 642.772 601.566 650.454 601.566V601.566C658.136 601.566 664.363 607.794 664.363 615.475V652.988C664.363 654.093 663.468 654.988 662.363 654.988H638.545C637.441 654.988 636.545 654.093 636.545 652.988V615.476Z" fill="#F5B916"/>
<rect x="636.546" y="622.935" width="27.817" height="1.57123" fill="#171C42"/>
<path d="M636.546 639.276H664.363V640.847H636.546V639.276Z" fill="#171C42"/>
<path d="M551.235 615.476C551.235 607.794 557.462 601.566 565.144 601.566V601.566C572.826 601.566 579.053 607.794 579.053 615.475V652.988C579.053 654.093 578.158 654.988 577.053 654.988H553.235C552.13 654.988 551.235 654.093 551.235 652.988V615.476Z" fill="#F5B916"/>
<rect x="551.235" y="622.935" width="27.817" height="1.57123" fill="#171C42"/>
<path d="M551.235 639.276H579.052V640.847H551.235V639.276Z" fill="#171C42"/>
<rect x="760.522" y="562.6" width="12.5698" height="12.5698" rx="3" fill="#F5B916"/>
<rect x="760.522" y="600.309" width="12.5698" height="12.5698" rx="3" fill="#F5B916"/>
<rect x="760.522" y="638.019" width="12.5698" height="12.5698" rx="3" fill="#F5B916"/>
<rect x="779.377" y="562.6" width="12.5698" height="12.5698" rx="3" fill="#F5B916"/>
<rect x="779.377" y="600.309" width="12.5698" height="12.5698" rx="3" fill="#F5B916"/>
<rect x="779.377" y="638.019" width="12.5698" height="12.5698" rx="3" fill="#F5B916"/>
<rect x="760.522" y="581.455" width="12.5698" height="12.5698" rx="3" fill="#F5B916"/>
<rect x="760.522" y="619.164" width="12.5698" height="12.5698" rx="3" fill="#F5B916"/>
<rect x="779.377" y="581.455" width="12.5698" height="12.5698" rx="3" fill="#F5B916"/>
<rect x="779.377" y="619.164" width="12.5698" height="12.5698" rx="3" fill="#F5B916"/>
<rect x="913.874" y="562.6" width="12.5698" height="12.5698" rx="3" transform="rotate(90 913.874 562.6)" fill="#F5B916"/>
<rect x="869.88" y="562.6" width="12.5698" height="12.5698" rx="3" transform="rotate(90 869.88 562.6)" fill="#F5B916"/>
<rect x="913.874" y="584.597" width="12.5698" height="12.5698" rx="3" transform="rotate(90 913.874 584.597)" fill="#F5B916"/>
<rect x="891.877" y="562.6" width="12.5698" height="12.5698" rx="3" transform="rotate(90 891.877 562.6)" fill="#F5B916"/>
<rect x="847.883" y="562.6" width="12.5698" height="12.5698" rx="3" transform="rotate(90 847.883 562.6)" fill="#F5B916"/>
<rect x="891.877" y="584.597" width="12.5698" height="12.5698" rx="3" transform="rotate(90 891.877 584.597)" fill="#F5B916"/>
<rect x="935.871" y="562.6" width="12.5698" height="12.5698" rx="3" transform="rotate(90 935.871 562.6)" fill="#F5B916"/>
<rect x="847.883" y="584.597" width="12.5698" height="12.5698" rx="3" transform="rotate(90 847.883 584.597)" fill="#F5B916"/>
<rect x="935.871" y="606.594" width="12.5698" height="12.5698" rx="3" transform="rotate(90 935.871 606.594)" fill="#F5B916"/>
<rect x="891.877" y="606.594" width="12.5698" height="12.5698" rx="3" transform="rotate(90 891.877 606.594)" fill="#F5B916"/>
<rect x="847.883" y="606.594" width="12.5698" height="12.5698" rx="3" transform="rotate(90 847.883 606.594)" fill="#F5B916"/>
<rect x="869.88" y="584.597" width="12.5698" height="12.5698" rx="3" transform="rotate(90 869.88 584.597)" fill="#F5B916"/>
<rect x="913.874" y="606.594" width="12.5698" height="12.5698" rx="3" transform="rotate(90 913.874 606.594)" fill="#F5B916"/>
<rect x="869.88" y="606.594" width="12.5698" height="12.5698" rx="3" transform="rotate(90 869.88 606.594)" fill="#F5B916"/>
<rect x="913.874" y="628.591" width="12.5698" height="12.5698" rx="3" transform="rotate(90 913.874 628.591)" fill="#F5B916"/>
<rect x="913.874" y="650.589" width="12.5698" height="12.5698" rx="3" transform="rotate(90 913.874 650.589)" fill="#F5B916"/>
</g>
<defs>
<clipPath id="clip0_2710_140">
<rect width="1200" height="1200" fill="white"/>
</clipPath>
</defs>
</svg>
